<!-- Generated by IcoMoon.io -->
<svg version="1.1" xmlns="http://www.w3.org/2000/svg" width="1024" height="1024" viewBox="0 0 1024 1024">
<g id="icomoon-ignore">
</g>
<path fill="none" stroke-linejoin="round" stroke-linecap="round" stroke-miterlimit="4" stroke-width="96" stroke="#000" d="M938.669 264.533c0-47.791 0-71.686-9.306-89.94-8.179-16.056-21.235-29.11-37.286-37.292-18.259-9.3-42.15-9.3-89.946-9.3h-17.062c-95.584 0-143.373 0-179.883 18.602-32.113 16.362-58.222 42.471-74.584 74.584-18.602 36.508-18.602 84.298-18.602 179.881v494.933l4.269-6.406c29.638-44.454 44.458-66.682 64.036-82.778 17.332-14.246 37.305-24.934 58.773-31.45 24.25-7.366 50.963-7.366 104.397-7.366h58.656c47.795 0 71.686 0 89.946-9.299 16.051-8.186 29.107-21.235 37.286-37.293 9.306-18.253 9.306-42.15 9.306-89.941v-366.934z"></path>
<path fill="none" stroke-linejoin="round" stroke-linecap="round" stroke-miterlimit="4" stroke-width="96" stroke="#000" d="M85.328 264.533c0-47.791 0-71.686 9.301-89.94 8.181-16.056 21.235-29.11 37.292-37.292 18.254-9.3 42.15-9.3 89.941-9.3h17.066c95.583 0 143.373 0 179.881 18.602 32.113 16.362 58.222 42.471 74.584 74.584 18.602 36.508 18.602 84.298 18.602 179.881v494.933l-4.269-6.406c-29.638-44.454-44.458-66.682-64.036-82.778-17.333-14.246-37.305-24.934-58.773-31.45-24.25-7.366-50.965-7.366-104.396-7.366h-58.659c-47.791 0-71.687 0-89.941-9.299-16.056-8.186-29.11-21.235-37.292-37.293-9.301-18.253-9.301-42.15-9.301-89.941v-366.934z"></path>
</svg>
