<!-- Generated by IcoMoon.io -->
<svg version="1.1" xmlns="http://www.w3.org/2000/svg" width="1024" height="1024" viewBox="0 0 1024 1024">
<g id="icomoon-ignore">
</g>
<path fill="none" stroke-linejoin="round" stroke-linecap="round" stroke-miterlimit="4" stroke-width="78.7692" stroke="#000" d="M889.171 196.694c-21.792-21.803-47.667-39.098-76.142-50.898-28.479-11.8-59.002-17.874-89.828-17.874s-61.353 6.074-89.828 17.874c-28.479 11.8-54.355 29.095-76.146 50.898l-45.225 45.227-45.229-45.227c-44.016-44.019-103.72-68.748-165.972-68.748s-121.954 24.729-165.973 68.748c-44.019 44.019-68.749 103.721-68.749 165.973s24.73 121.956 68.749 165.972l377.175 377.175 377.171-377.175c21.803-21.792 39.097-47.667 50.901-76.142 11.8-28.479 17.873-59.004 17.873-89.83s-6.073-61.35-17.873-89.828c-11.804-28.478-29.097-54.353-50.901-76.145z"></path>
</svg>
